<svg xmlns="http://www.w3.org/2000/svg" xmlns:xlink="http://www.w3.org/1999/xlink" width="1364" zoomAndPan="magnify" viewBox="0 0 1023 280.499991" height="374" preserveAspectRatio="xMidYMid meet" version="1.0"><defs><clipPath id="da4481c8c9"><path d="M 0.910156 0.105469 L 146.597656 0.105469 L 146.597656 66.738281 L 0.910156 66.738281 Z M 0.910156 0.105469 " clip-rule="nonzero"/></clipPath><clipPath id="68c2db8b2e"><path d="M 409.5 28 L 511.515625 28 L 511.515625 66.746094 L 409.5 66.746094 Z M 409.5 28 " clip-rule="nonzero"/></clipPath><clipPath id="b11d123717"><path d="M 416.238281 28 L 504.761719 28 C 508.484375 28 511.5 31.015625 511.5 34.738281 L 511.5 60.011719 C 511.5 63.730469 508.484375 66.746094 504.761719 66.746094 L 416.238281 66.746094 C 412.515625 66.746094 409.5 63.730469 409.5 60.011719 L 409.5 34.738281 C 409.5 31.015625 412.515625 28 416.238281 28 Z M 416.238281 28 " clip-rule="nonzero"/></clipPath><clipPath id="409eb52824"><path d="M 0.5 0 L 102.515625 0 L 102.515625 38.746094 L 0.5 38.746094 Z M 0.5 0 " clip-rule="nonzero"/></clipPath><clipPath id="9bbff5dea6"><path d="M 7.238281 0 L 95.761719 0 C 99.484375 0 102.5 3.015625 102.5 6.738281 L 102.5 32.011719 C 102.5 35.730469 99.484375 38.746094 95.761719 38.746094 L 7.238281 38.746094 C 3.515625 38.746094 0.5 35.730469 0.5 32.011719 L 0.5 6.738281 C 0.5 3.015625 3.515625 0 7.238281 0 Z M 7.238281 0 " clip-rule="nonzero"/></clipPath><clipPath id="ff40b94a1a"><rect x="0" width="103" y="0" height="39"/></clipPath><clipPath id="fbdb60056a"><path d="M 521.925781 28 L 564 28 L 564 66.746094 L 521.925781 66.746094 Z M 521.925781 28 " clip-rule="nonzero"/></clipPath><clipPath id="b50b20e5ca"><path d="M 528.664062 28 L 557.1875 28 C 560.910156 28 563.925781 31.015625 563.925781 34.738281 L 563.925781 60.011719 C 563.925781 63.730469 560.910156 66.746094 557.1875 66.746094 L 528.664062 66.746094 C 524.941406 66.746094 521.925781 63.730469 521.925781 60.011719 L 521.925781 34.738281 C 521.925781 31.015625 524.941406 28 528.664062 28 Z M 528.664062 28 " clip-rule="nonzero"/></clipPath><clipPath id="207df12cb3"><path d="M 0.925781 0 L 43 0 L 43 38.746094 L 0.925781 38.746094 Z M 0.925781 0 " clip-rule="nonzero"/></clipPath><clipPath id="1e773385c4"><path d="M 7.664062 0 L 36.1875 0 C 39.910156 0 42.925781 3.015625 42.925781 6.738281 L 42.925781 32.011719 C 42.925781 35.730469 39.910156 38.746094 36.1875 38.746094 L 7.664062 38.746094 C 3.941406 38.746094 0.925781 35.730469 0.925781 32.011719 L 0.925781 6.738281 C 0.925781 3.015625 3.941406 0 7.664062 0 Z M 7.664062 0 " clip-rule="nonzero"/></clipPath><clipPath id="bf83f65543"><rect x="0" width="43" y="0" height="39"/></clipPath><clipPath id="485e4cf8c2"><path d="M 574.40625 28 L 616.484375 28 L 616.484375 66.746094 L 574.40625 66.746094 Z M 574.40625 28 " clip-rule="nonzero"/></clipPath><clipPath id="2b57eeae91"><path d="M 581.144531 28 L 609.667969 28 C 613.390625 28 616.40625 31.015625 616.40625 34.738281 L 616.40625 60.011719 C 616.40625 63.730469 613.390625 66.746094 609.667969 66.746094 L 581.144531 66.746094 C 577.425781 66.746094 574.40625 63.730469 574.40625 60.011719 L 574.40625 34.738281 C 574.40625 31.015625 577.425781 28 581.144531 28 Z M 581.144531 28 " clip-rule="nonzero"/></clipPath><clipPath id="0b838bf8d1"><path d="M 0.40625 0 L 42.484375 0 L 42.484375 38.746094 L 0.40625 38.746094 Z M 0.40625 0 " clip-rule="nonzero"/></clipPath><clipPath id="a24f6ab5e8"><path d="M 7.144531 0 L 35.667969 0 C 39.390625 0 42.40625 3.015625 42.40625 6.738281 L 42.40625 32.011719 C 42.40625 35.730469 39.390625 38.746094 35.667969 38.746094 L 7.144531 38.746094 C 3.425781 38.746094 0.40625 35.730469 0.40625 32.011719 L 0.40625 6.738281 C 0.40625 3.015625 3.425781 0 7.144531 0 Z M 7.144531 0 " clip-rule="nonzero"/></clipPath><clipPath id="e0b749fdfd"><rect x="0" width="43" y="0" height="39"/></clipPath><clipPath id="0c8e99ec45"><path d="M 421.476562 232.625 L 463.554688 232.625 L 463.554688 271.375 L 421.476562 271.375 Z M 421.476562 232.625 " clip-rule="nonzero"/></clipPath><clipPath id="91be4e9371"><path d="M 428.214844 232.625 L 456.738281 232.625 C 460.460938 232.625 463.476562 235.644531 463.476562 239.363281 L 463.476562 264.636719 C 463.476562 268.359375 460.460938 271.375 456.738281 271.375 L 428.214844 271.375 C 424.492188 271.375 421.476562 268.359375 421.476562 264.636719 L 421.476562 239.363281 C 421.476562 235.644531 424.492188 232.625 428.214844 232.625 Z M 428.214844 232.625 " clip-rule="nonzero"/></clipPath><clipPath id="b60a539fd5"><path d="M 0.476562 0.625 L 42.527344 0.625 L 42.527344 39.375 L 0.476562 39.375 Z M 0.476562 0.625 " clip-rule="nonzero"/></clipPath><clipPath id="4b555bcc69"><path d="M 7.214844 0.625 L 35.738281 0.625 C 39.460938 0.625 42.476562 3.644531 42.476562 7.363281 L 42.476562 32.636719 C 42.476562 36.359375 39.460938 39.375 35.738281 39.375 L 7.214844 39.375 C 3.492188 39.375 0.476562 36.359375 0.476562 32.636719 L 0.476562 7.363281 C 0.476562 3.644531 3.492188 0.625 7.214844 0.625 Z M 7.214844 0.625 " clip-rule="nonzero"/></clipPath><clipPath id="bedb9de42c"><rect x="0" width="43" y="0" height="40"/></clipPath><clipPath id="a494d9a430"><path d="M 367.5 232.625 L 409.574219 232.625 L 409.574219 271.375 L 367.5 271.375 Z M 367.5 232.625 " clip-rule="nonzero"/></clipPath><clipPath id="2512ff920e"><path d="M 374.234375 232.625 L 402.761719 232.625 C 406.480469 232.625 409.5 235.644531 409.5 239.363281 L 409.5 264.636719 C 409.5 268.359375 406.480469 271.375 402.761719 271.375 L 374.234375 271.375 C 370.515625 271.375 367.5 268.359375 367.5 264.636719 L 367.5 239.363281 C 367.5 235.644531 370.515625 232.625 374.234375 232.625 Z M 374.234375 232.625 " clip-rule="nonzero"/></clipPath><clipPath id="4dfd9fcf16"><path d="M 0.5 0.625 L 42.574219 0.625 L 42.574219 39.375 L 0.5 39.375 Z M 0.5 0.625 " clip-rule="nonzero"/></clipPath><clipPath id="2cde47bebb"><path d="M 7.234375 0.625 L 35.761719 0.625 C 39.480469 0.625 42.5 3.644531 42.5 7.363281 L 42.5 32.636719 C 42.5 36.359375 39.480469 39.375 35.761719 39.375 L 7.234375 39.375 C 3.515625 39.375 0.5 36.359375 0.5 32.636719 L 0.5 7.363281 C 0.5 3.644531 3.515625 0.625 7.234375 0.625 Z M 7.234375 0.625 " clip-rule="nonzero"/></clipPath><clipPath id="220feacf18"><rect x="0" width="43" y="0" height="40"/></clipPath><clipPath id="c97258c921"><path d="M 313.417969 232.625 L 355.496094 232.625 L 355.496094 271.375 L 313.417969 271.375 Z M 313.417969 232.625 " clip-rule="nonzero"/></clipPath><clipPath id="d4d4d383f7"><path d="M 320.15625 232.625 L 348.679688 232.625 C 352.402344 232.625 355.417969 235.644531 355.417969 239.363281 L 355.417969 264.636719 C 355.417969 268.359375 352.402344 271.375 348.679688 271.375 L 320.15625 271.375 C 316.433594 271.375 313.417969 268.359375 313.417969 264.636719 L 313.417969 239.363281 C 313.417969 235.644531 316.433594 232.625 320.15625 232.625 Z M 320.15625 232.625 " clip-rule="nonzero"/></clipPath><clipPath id="2937c6e288"><path d="M 0.417969 0.625 L 42.476562 0.625 L 42.476562 39.375 L 0.417969 39.375 Z M 0.417969 0.625 " clip-rule="nonzero"/></clipPath><clipPath id="5f016b86da"><path d="M 7.15625 0.625 L 35.679688 0.625 C 39.402344 0.625 42.417969 3.644531 42.417969 7.363281 L 42.417969 32.636719 C 42.417969 36.359375 39.402344 39.375 35.679688 39.375 L 7.15625 39.375 C 3.433594 39.375 0.417969 36.359375 0.417969 32.636719 L 0.417969 7.363281 C 0.417969 3.644531 3.433594 0.625 7.15625 0.625 Z M 7.15625 0.625 " clip-rule="nonzero"/></clipPath><clipPath id="f2c68af038"><rect x="0" width="43" y="0" height="40"/></clipPath><clipPath id="669f7cfec6"><path d="M 542.925781 196 L 679.933594 196 L 679.933594 280 L 542.925781 280 Z M 542.925781 196 " clip-rule="nonzero"/></clipPath><clipPath id="7f195315eb"><path d="M 654.132812 28 L 731.992188 28 L 731.992188 66.742188 L 654.132812 66.742188 Z M 654.132812 28 " clip-rule="nonzero"/></clipPath><clipPath id="4ccd3c7370"><path d="M 927.445312 0 L 1022.089844 0 L 1022.089844 133.15625 L 927.445312 133.15625 Z M 927.445312 0 " clip-rule="nonzero"/></clipPath><clipPath id="2baa1495c8"><path d="M 971.109375 168 L 1022.089844 168 L 1022.089844 252 L 971.109375 252 Z M 971.109375 168 " clip-rule="nonzero"/></clipPath><clipPath id="e81e0a4f95"><path d="M 1013.109375 168 C 989.914062 168 971.109375 186.804688 971.109375 210 C 971.109375 233.195312 989.914062 252 1013.109375 252 C 1036.304688 252 1055.109375 233.195312 1055.109375 210 C 1055.109375 186.804688 1036.304688 168 1013.109375 168 Z M 1013.109375 168 " clip-rule="nonzero"/></clipPath><clipPath id="957899aae5"><path d="M 0.109375 0 L 51.089844 0 L 51.089844 84 L 0.109375 84 Z M 0.109375 0 " clip-rule="nonzero"/></clipPath><clipPath id="22e5009700"><path d="M 42.109375 0 C 18.914062 0 0.109375 18.804688 0.109375 42 C 0.109375 65.195312 18.914062 84 42.109375 84 C 65.304688 84 84.109375 65.195312 84.109375 42 C 84.109375 18.804688 65.304688 0 42.109375 0 Z M 42.109375 0 " clip-rule="nonzero"/></clipPath><clipPath id="834f710d81"><rect x="0" width="52" y="0" height="84"/></clipPath><clipPath id="ab5a6477e8"><path d="M 0.910156 217.542969 L 64.980469 217.542969 L 64.980469 280 L 0.910156 280 Z M 0.910156 217.542969 " clip-rule="nonzero"/></clipPath></defs><g clip-path="url(#da4481c8c9)"><path fill="#f4bd21" d="M -16.40625 66.738281 L 112.976562 66.738281 C 131.445312 66.738281 146.394531 51.820312 146.394531 33.382812 C 146.394531 14.945312 131.445312 0.0273438 112.976562 0.0273438 L -16.484375 0.0273438 L -16.484375 66.738281 Z M -16.40625 66.738281 " fill-opacity="1" fill-rule="nonzero"/></g><g clip-path="url(#68c2db8b2e)"><g clip-path="url(#b11d123717)"><g transform="matrix(1, 0, 0, 1, 409, 28)"><g clip-path="url(#ff40b94a1a)"><g clip-path="url(#409eb52824)"><g clip-path="url(#9bbff5dea6)"><path fill="#81b3da" d="M 0.5 0 L 102.515625 0 L 102.515625 38.746094 L 0.5 38.746094 Z M 0.5 0 " fill-opacity="1" fill-rule="nonzero"/></g></g></g></g></g></g><g clip-path="url(#fbdb60056a)"><g clip-path="url(#b50b20e5ca)"><g transform="matrix(1, 0, 0, 1, 521, 28)"><g clip-path="url(#bf83f65543)"><g clip-path="url(#207df12cb3)"><g clip-path="url(#1e773385c4)"><path fill="#81b3da" d="M 0.925781 0 L 42.851562 0 L 42.851562 38.746094 L 0.925781 38.746094 Z M 0.925781 0 " fill-opacity="1" fill-rule="nonzero"/></g></g></g></g></g></g><g clip-path="url(#485e4cf8c2)"><g clip-path="url(#2b57eeae91)"><g transform="matrix(1, 0, 0, 1, 574, 28)"><g clip-path="url(#e0b749fdfd)"><g clip-path="url(#0b838bf8d1)"><g clip-path="url(#a24f6ab5e8)"><path fill="#81b3da" d="M 0.40625 0 L 42.332031 0 L 42.332031 38.746094 L 0.40625 38.746094 Z M 0.40625 0 " fill-opacity="1" fill-rule="nonzero"/></g></g></g></g></g></g><g clip-path="url(#0c8e99ec45)"><g clip-path="url(#91be4e9371)"><g transform="matrix(1, 0, 0, 1, 421, 232)"><g clip-path="url(#bedb9de42c)"><g clip-path="url(#b60a539fd5)"><g clip-path="url(#4b555bcc69)"><path fill="#cb6ce6" d="M 0.476562 0.625 L 42.402344 0.625 L 42.402344 39.375 L 0.476562 39.375 Z M 0.476562 0.625 " fill-opacity="1" fill-rule="nonzero"/></g></g></g></g></g></g><g clip-path="url(#a494d9a430)"><g clip-path="url(#2512ff920e)"><g transform="matrix(1, 0, 0, 1, 367, 232)"><g clip-path="url(#220feacf18)"><g clip-path="url(#4dfd9fcf16)"><g clip-path="url(#2cde47bebb)"><path fill="#cb6ce6" d="M 0.5 0.625 L 42.425781 0.625 L 42.425781 39.375 L 0.5 39.375 Z M 0.5 0.625 " fill-opacity="1" fill-rule="nonzero"/></g></g></g></g></g></g><g clip-path="url(#c97258c921)"><g clip-path="url(#d4d4d383f7)"><g transform="matrix(1, 0, 0, 1, 313, 232)"><g clip-path="url(#f2c68af038)"><g clip-path="url(#2937c6e288)"><g clip-path="url(#5f016b86da)"><path fill="#cb6ce6" d="M 0.417969 0.625 L 42.34375 0.625 L 42.34375 39.375 L 0.417969 39.375 Z M 0.417969 0.625 " fill-opacity="1" fill-rule="nonzero"/></g></g></g></g></g></g><g clip-path="url(#669f7cfec6)"><path fill="#81b3da" d="M 611.328125 196 C 573.550781 196 542.925781 226.625 542.925781 264.402344 C 542.925781 302.183594 573.550781 332.808594 611.328125 332.808594 C 649.105469 332.808594 679.734375 302.183594 679.734375 264.402344 C 679.734375 226.625 649.105469 196 611.328125 196 Z M 611.328125 310.007812 C 586.144531 310.007812 565.726562 289.589844 565.726562 264.402344 C 565.726562 239.21875 586.144531 218.800781 611.328125 218.800781 C 636.511719 218.800781 656.933594 239.21875 656.933594 264.402344 C 656.933594 289.589844 636.511719 310.007812 611.328125 310.007812 Z M 611.328125 310.007812 " fill-opacity="1" fill-rule="nonzero"/></g><g clip-path="url(#7f195315eb)"><path fill="#ff5757" d="M 693.25 28 C 671.851562 28 654.507812 45.347656 654.507812 66.742188 L 731.992188 66.742188 C 731.992188 45.347656 714.648438 28 693.25 28 Z M 693.25 28 " fill-opacity="1" fill-rule="nonzero"/></g><g clip-path="url(#4ccd3c7370)"><path fill="#cb6ce6" d="M 1013.105469 -38.289062 C 965.796875 -38.289062 927.445312 0.0625 927.445312 47.371094 C 927.445312 94.675781 965.796875 133.027344 1013.105469 133.027344 C 1060.410156 133.027344 1098.761719 94.675781 1098.761719 47.371094 C 1098.761719 0.0625 1060.410156 -38.289062 1013.105469 -38.289062 Z M 1013.105469 104.476562 C 981.570312 104.476562 956 78.90625 956 47.371094 C 956 15.832031 981.570312 -9.734375 1013.105469 -9.734375 C 1044.640625 -9.734375 1070.210938 15.832031 1070.210938 47.371094 C 1070.210938 78.90625 1044.640625 104.476562 1013.105469 104.476562 Z M 1013.105469 104.476562 " fill-opacity="1" fill-rule="nonzero"/></g><g clip-path="url(#2baa1495c8)"><g clip-path="url(#e81e0a4f95)"><g transform="matrix(1, 0, 0, 1, 971, 168)"><g clip-path="url(#834f710d81)"><g clip-path="url(#957899aae5)"><g clip-path="url(#22e5009700)"><path fill="#f4bd21" d="M 0.109375 0 L 84.109375 0 L 84.109375 84 L 0.109375 84 Z M 0.109375 0 " fill-opacity="1" fill-rule="nonzero"/></g></g></g></g></g></g><g clip-path="url(#ab5a6477e8)"><path fill="#ff5757" d="M -9.867188 217.542969 C -51.222656 217.542969 -84.75 251.070312 -84.75 292.429688 C -84.75 333.785156 -51.222656 367.3125 -9.867188 367.3125 C 31.488281 367.3125 65.015625 333.785156 65.015625 292.429688 C 65.015625 251.070312 31.488281 217.542969 -9.867188 217.542969 Z M -9.867188 342.351562 C -37.4375 342.351562 -59.789062 320 -59.789062 292.429688 C -59.789062 264.859375 -37.4375 242.507812 -9.867188 242.507812 C 17.703125 242.507812 40.054688 264.859375 40.054688 292.429688 C 40.054688 320 17.703125 342.351562 -9.867188 342.351562 Z M -9.867188 342.351562 " fill-opacity="1" fill-rule="nonzero"/></g></svg>